<?xml version="1.0" encoding="UTF-8" standalone="no"?><!DOCTYPE svg PUBLIC "-//W3C//DTD SVG 1.1//EN" "http://www.w3.org/Graphics/SVG/1.1/DTD/svg11.dtd"><svg width="100%" height="100%" viewBox="0 0 534 534" version="1.1" xmlns="http://www.w3.org/2000/svg" xmlns:xlink="http://www.w3.org/1999/xlink" xml:space="preserve" xmlns:serif="http://www.serif.com/" style="fill-rule:evenodd;clip-rule:evenodd;stroke-linejoin:round;stroke-miterlimit:2;"><rect id="Artboard2" x="0" y="0" width="533.333" height="533.333" style="fill:none;"/><clipPath id="_clip1"><rect x="0" y="0" width="533.333" height="533.333"/></clipPath><g clip-path="url(#_clip1)"><g id="그룹_16058"><path id="패스_11518" d="M208.897,2.818l324.268,-0l-0,325.419c0.663,16.608 -0.631,33.237 -3.855,49.544c-6.85,30.094 -21.763,57.765 -43.136,80.033c-28.496,30.489 -54.69,39.631 -93.2,49.543c10.841,-11.936 17.118,-27.332 17.713,-43.446c1.034,-13.949 1.291,-27.945 0.771,-41.924l0,-222.516c-0.468,-20.167 -8.436,-39.453 -22.339,-54.07c-12.64,-13.994 -30.437,-22.27 -49.283,-22.919l-200.258,-0l0,-52.578c-0.332,-15.047 4.88,-29.704 14.639,-41.163c13.313,-16.514 33.469,-26.069 54.68,-25.923Z" style="fill:url(#_Linear2);"/><path id="패스_11519" d="M324.436,530.517l-324.267,0l-0,-325.419c-0.663,-16.608 0.631,-33.237 3.855,-49.544c6.891,-29.929 21.494,-57.541 42.354,-80.083c29.278,-30.519 54.69,-39.631 93.2,-49.543c-10.841,11.936 -17.117,27.332 -17.713,43.446c-1.034,13.949 -1.291,27.945 -0.771,41.923l0,222.567c0.468,20.167 8.436,39.453 22.339,54.07c12.651,13.978 30.451,22.236 49.293,22.869l199.487,0l0,51.827c0.332,15.047 -4.88,29.704 -14.639,41.163c-12.498,16.775 -32.229,26.677 -53.148,26.674l0.01,0.05Z" style="fill:url(#_Linear3);"/></g></g><defs><linearGradient id="_Linear2" x1="0" y1="0" x2="1" y2="0" gradientUnits="userSpaceOnUse" gradientTransform="matrix(316.591,447.528,-447.528,316.591,252.575,-42.5925)"><stop offset="0" style="stop-color:#003f96;stop-opacity:1"/><stop offset="0.09" style="stop-color:#0350a2;stop-opacity:1"/><stop offset="0.28" style="stop-color:#0a7cc2;stop-opacity:1"/><stop offset="0.45" style="stop-color:#12abe3;stop-opacity:1"/><stop offset="0.84" style="stop-color:#93ddfe;stop-opacity:1"/><stop offset="1" style="stop-color:#96deff;stop-opacity:1"/></linearGradient><linearGradient id="_Linear3" x1="0" y1="0" x2="1" y2="0" gradientUnits="userSpaceOnUse" gradientTransform="matrix(-149.831,-516.7,516.7,-149.831,223.178,561.802)"><stop offset="0" style="stop-color:#003f96;stop-opacity:1"/><stop offset="0.09" style="stop-color:#0350a2;stop-opacity:1"/><stop offset="0.28" style="stop-color:#0a7cc2;stop-opacity:1"/><stop offset="0.45" style="stop-color:#12abe3;stop-opacity:1"/><stop offset="0.84" style="stop-color:#93ddfe;stop-opacity:1"/><stop offset="1" style="stop-color:#96deff;stop-opacity:1"/></linearGradient></defs></svg>