<?xml version="1.0" encoding="UTF-8" standalone="no"?><!DOCTYPE svg PUBLIC "-//W3C//DTD SVG 1.1//EN" "http://www.w3.org/Graphics/SVG/1.1/DTD/svg11.dtd"><svg width="100%" height="100%" viewBox="0 0 1251 220" version="1.1" xmlns="http://www.w3.org/2000/svg" xmlns:xlink="http://www.w3.org/1999/xlink" xml:space="preserve" xmlns:serif="http://www.serif.com/" style="fill-rule:evenodd;clip-rule:evenodd;stroke-linejoin:round;stroke-miterlimit:2;"><g><g id="그룹_16058"><path id="패스_11518" d="M86.928,0.001l134.938,-0l-0,135.416c0.276,6.912 -0.263,13.832 -1.604,20.617c-2.85,12.523 -9.056,24.038 -17.95,33.304c-11.859,12.688 -22.759,16.492 -38.784,20.617c4.512,-4.967 7.124,-11.374 7.371,-18.079c0.431,-5.805 0.538,-11.629 0.321,-17.446l0,-92.596c-0.195,-8.392 -3.51,-16.418 -9.296,-22.5c-5.26,-5.823 -12.666,-9.267 -20.508,-9.537l-83.333,-0l-0,-21.88c-0.139,-6.261 2.03,-12.36 6.091,-17.129c5.54,-6.872 13.928,-10.848 22.754,-10.787Z" style="fill:url(#_Linear1);"/><path id="패스_11519" d="M135.008,219.592l-134.938,0l0,-135.416c-0.276,-6.912 0.263,-13.831 1.604,-20.617c2.868,-12.455 8.945,-23.945 17.625,-33.325c12.184,-12.7 22.759,-16.492 38.784,-20.617c-4.512,4.968 -7.123,11.374 -7.371,18.08c-0.43,5.804 -0.538,11.629 -0.321,17.445l-0,92.617c0.195,8.392 3.51,16.418 9.296,22.5c5.264,5.817 12.671,9.253 20.512,9.517l83.013,-0l-0,21.566c0.138,6.262 -2.031,12.361 -6.092,17.13c-5.201,6.98 -13.411,11.101 -22.117,11.1l0.005,0.02Z" style="fill:url(#_Linear2);"/></g><g id="그룹_16059"><path id="패스_11520" d="M994.42,218.251l-0.671,-4.692c-2.679,3.333 -6.7,5.696 -15.079,5.696c-6.989,0.353 -13.773,-2.485 -18.429,-7.708c-3.559,-5.586 -5.314,-12.134 -5.025,-18.75c-0.451,-6.486 1.194,-12.949 4.692,-18.43c4.893,-5.752 12.23,-8.861 19.766,-8.375c11.059,0 17.425,3.688 20.438,9.046c1.596,2.866 2.406,6.104 2.346,9.384l-11.059,-0c0.035,-2.209 -0.955,-4.314 -2.679,-5.696c-1.182,-1.026 -2.546,-1.822 -4.021,-2.346c-1.499,-0.55 -3.098,-0.778 -4.691,-0.671c-3.72,-0.252 -7.376,1.09 -10.05,3.688c-2.346,2.345 -3.334,6.7 -3.334,13.75c0,7.05 1.004,10.72 3.334,13.404c2.788,2.634 6.562,3.974 10.387,3.687c6.7,0 11.392,-3.333 12.063,-7.708l-0,-4.721l-15.08,0l0,-9.379l25.463,-0l-0,30.154l-8.371,-0.333Z" style="fill:#fff;fill-rule:nonzero;"/><path id="패스_11521" d="M1010.84,218.251l-0,-51.6l11.392,-0l-0,41.883l25.8,0l-0,9.717l-37.192,-0Z" style="fill:#fff;fill-rule:nonzero;"/><path id="패스_11522" d="M1094.6,174.355c3.328,5.417 4.853,11.753 4.355,18.092c0.39,6.581 -1.248,13.127 -4.692,18.75c-3.688,5.362 -10.388,8.375 -20.438,8.375c-10.05,-0 -16.754,-2.68 -20.437,-8.042c-3.596,-5.557 -5.247,-12.154 -4.692,-18.75c-0.458,-6.23 1.066,-12.448 4.354,-17.758c4.021,-5.363 10.388,-8.713 20.775,-8.713c10.05,-0.329 16.755,2.688 20.775,8.046Zm-10.72,31.829c2.738,-4.038 4.038,-8.883 3.687,-13.75c0.459,-4.611 -0.722,-9.239 -3.333,-13.067c-2.744,-2.944 -6.718,-4.435 -10.721,-4.02c-3.907,-0.431 -7.788,1.071 -10.388,4.02c-2.413,3.915 -3.577,8.474 -3.333,13.067c-0.368,4.918 1.061,9.806 4.021,13.75c2.608,2.455 6.151,3.67 9.717,3.333c3.778,0.597 7.624,-0.64 10.345,-3.329l0.005,-0.004Z" style="fill:#fff;fill-rule:nonzero;"/><path id="패스_11523" d="M1137.15,218.251l-31.158,-0l0,-51.6l29.167,-0c4.392,-0.302 8.73,1.144 12.062,4.021c1.008,1.26 1.904,2.605 2.679,4.02c0.574,1.494 0.803,3.098 0.671,4.692c0.232,3.452 -0.976,6.851 -3.333,9.383c-1.35,1.401 -3.109,2.339 -5.025,2.68c3.067,0.36 5.913,1.783 8.042,4.02c2.067,2.534 3.033,5.795 2.679,9.046c0.161,3.607 -1.174,7.125 -3.688,9.717c-3.372,2.83 -7.7,4.269 -12.096,4.021Zm-0.333,-41.213c-1.43,-1.096 -3.239,-1.579 -5.025,-1.341l-14.742,-0l0,12.395l15.746,0c1.453,0.02 2.871,-0.453 4.021,-1.341c0.638,-0.656 1.1,-1.463 1.342,-2.346c0.447,-1.76 0.447,-3.603 -0,-5.363c-0.334,-0.67 -1.004,-1.341 -1.342,-2.008l0,0.004Zm4.021,26.471c0.055,-0.906 -0.058,-1.814 -0.333,-2.679c-0.358,-0.905 -0.93,-1.711 -1.667,-2.346c-1.43,-1.096 -3.239,-1.579 -5.025,-1.342l-17.083,0l-0,12.063l17.083,-0c1.772,0.074 3.526,-0.394 5.025,-1.342c0.56,-0.587 1.014,-1.266 1.342,-2.008c0.52,-0.664 0.757,-1.508 0.658,-2.346Z" style="fill:#fff;fill-rule:nonzero;"/><path id="패스_11524" d="M1166.64,218.251l-11.725,-0l20.104,-51.6l14.408,-0l18.75,51.6l-11.725,-0l-4.354,-12.063l-20.766,0l-4.692,12.063Zm16.417,-37.192l-1.342,-4.354l-1.342,4.354l-6.029,15.746l13.75,-0l-5.037,-15.746Z" style="fill:#fff;fill-rule:nonzero;"/><path id="패스_11525" d="M1212.88,218.251l0,-51.6l11.392,-0l0,41.883l25.8,0l0,9.717l-37.192,-0Z" style="fill:#fff;fill-rule:nonzero;"/></g><path id="패스_11543" d="M297.745,87.438l89.288,0c5.744,0 10.47,4.727 10.47,10.471c0,5.744 -4.726,10.471 -10.47,10.471l-89.288,-0l0,-20.942Zm-34.246,-87.433l0,33.246l117.679,-0c5.745,-0 10.471,4.726 10.471,10.471c0,5.744 -4.726,10.47 -10.471,10.47l-117.679,0l0,87.434l124.534,-0c0.013,-0 0.025,-0 0.038,-0c23.96,-0 43.675,-19.716 43.675,-43.675c0,-11.537 -4.571,-22.616 -12.705,-30.796c4.486,-6.991 6.865,-15.127 6.854,-23.433c-0.029,-23.972 -19.745,-43.687 -43.717,-43.717l-118.679,-0Z" style="fill:#fff;fill-rule:nonzero;"/><path id="패스_11544" d="M961.608,53.976l-0,0.221l-76.575,-0c-0.067,1.112 -0.109,2.233 -0.109,3.362l0,27.163c0.035,31.206 25.703,56.874 56.909,56.908l112.533,-0l-0,-33.25l-111.188,-0c-11.92,-0.036 -22.11,-8.917 -23.775,-20.721l126.346,0l0,-33.683l-84.141,-0Zm-19.125,-53.971c-22.323,0.025 -42.706,13.019 -52.15,33.246l164.037,-0l0,-33.246l-111.887,-0Z" style="fill:#0b85c8;fill-rule:nonzero;"/><path id="패스_11545" d="M448.724,141.626l34.246,-0l0,-87.434l-34.246,0l0,87.434Zm0,-108.375l34.246,-0l0,-33.25l-34.246,-0l0,33.25Z" style="fill:#fff;fill-rule:nonzero;"/><path id="패스_11546" d="M709.158,0.005l-0,33.246l123.533,-0c5.744,-0 10.471,4.726 10.471,10.471c-0,5.744 -4.727,10.47 -10.471,10.47l-123.533,0l-0,87.434l34.245,-0l0,-54.188l53.588,0l41.629,54.167l41.954,-0l-41.854,-54.454c21.954,-2.531 38.711,-21.33 38.711,-43.429c0,-23.983 -19.734,-43.717 -43.716,-43.717c-0.01,-0 -0.019,-0 -0.028,-0l-124.529,-0Z" style="fill:#0b85c8;fill-rule:nonzero;"/><path id="패스_11547" d="M528.974,141.626l34.246,-0l0,-87.438l-34.246,0l0,87.438Zm-28.091,-141.625l-0,33.25l90.416,-0l0,-33.25l-90.416,-0Z" style="fill:#fff;fill-rule:nonzero;"/><path id="패스_11548" d="M633.445,141.626l34.246,-0l-0,-87.438l-34.246,0l0,87.438Zm-28.092,-141.625l0,33.25l90.417,-0l0,-33.25l-90.417,-0Z" style="fill:#fff;fill-rule:nonzero;"/><path id="패스_11549" d="M1066.67,0.005l52.679,52.683l24.213,-24.212l-28.463,-28.471l-48.429,-0Zm137.025,-0l-134.975,141.625l46.379,-0l43.271,-43.292l43.271,43.279l48.433,0l-70.808,-70.804l70.808,-70.808l-46.379,-0Z" style="fill:#0b85c8;fill-rule:nonzero;"/></g><defs><linearGradient id="_Linear1" x1="0" y1="0" x2="1" y2="0" gradientUnits="userSpaceOnUse" gradientTransform="matrix(131.743,186.23,-186.23,131.743,105.104,-18.8959)"><stop offset="0" style="stop-color:#003f96;stop-opacity:1"/><stop offset="0.09" style="stop-color:#0350a2;stop-opacity:1"/><stop offset="0.28" style="stop-color:#0a7cc2;stop-opacity:1"/><stop offset="0.45" style="stop-color:#12abe3;stop-opacity:1"/><stop offset="0.84" style="stop-color:#93ddfe;stop-opacity:1"/><stop offset="1" style="stop-color:#96deff;stop-opacity:1"/></linearGradient><linearGradient id="_Linear2" x1="0" y1="0" x2="1" y2="0" gradientUnits="userSpaceOnUse" gradientTransform="matrix(-62.3493,-215.014,215.014,-62.3493,92.8711,232.611)"><stop offset="0" style="stop-color:#003f96;stop-opacity:1"/><stop offset="0.09" style="stop-color:#0350a2;stop-opacity:1"/><stop offset="0.28" style="stop-color:#0a7cc2;stop-opacity:1"/><stop offset="0.45" style="stop-color:#12abe3;stop-opacity:1"/><stop offset="0.84" style="stop-color:#93ddfe;stop-opacity:1"/><stop offset="1" style="stop-color:#96deff;stop-opacity:1"/></linearGradient></defs></svg>